<svg width="20" height="21" viewBox="0 0 20 21" fill="none" xmlns="http://www.w3.org/2000/svg">
<path d="M10 0.165649C11.375 0.165649 12.6562 0.431274 13.8438 0.962524C15.0625 1.46252 16.125 2.18127 17.0312 3.11877C17.9688 4.02502 18.6875 5.08752 19.1875 6.30627C19.7188 7.49377 19.9844 8.77502 19.9844 10.15C19.9844 11.525 19.7188 12.8219 19.1875 14.0406C18.6875 15.2281 17.9688 16.2906 17.0312 17.2281C16.125 18.1344 15.0625 18.8531 13.8438 19.3844C12.6562 19.8844 11.375 20.1344 10 20.1344C8.625 20.1344 7.32812 19.8844 6.10938 19.3844C4.92188 18.8531 3.85938 18.1344 2.92188 17.2281C2.01562 16.2906 1.29688 15.2281 0.765625 14.0406C0.265625 12.8219 0.015625 11.525 0.015625 10.15C0.015625 8.77502 0.265625 7.49377 0.765625 6.30627C1.29688 5.08752 2.01562 4.02502 2.92188 3.11877C3.85938 2.18127 4.92188 1.46252 6.10938 0.962524C7.32812 0.431274 8.625 0.165649 10 0.165649ZM7.51562 14.65L14.5 10.15L7.51562 5.65002V14.65Z" fill="#34364A"/>
</svg>
