<svg width="25" height="25" viewBox="0 0 25 25" fill="none" xmlns="http://www.w3.org/2000/svg">
<g clip-path="url(#clip0_975_122)">
<path d="M12.6899 22.5601C18.2129 22.5601 22.6899 18.0831 22.6899 12.5601C22.6899 7.03706 18.2129 2.56006 12.6899 2.56006C7.16694 2.56006 2.68994 7.03706 2.68994 12.5601C2.68994 18.0831 7.16694 22.5601 12.6899 22.5601Z" stroke="#34364A" stroke-width="2" stroke-linecap="round" stroke-linejoin="round"/>
<path d="M8.68953 3.56006H9.68953C7.73956 9.40163 7.73956 15.7185 9.68953 21.5601H8.68953M15.6895 3.56006C17.6395 9.40163 17.6395 15.7185 15.6895 21.5601" stroke="#34364A" stroke-width="2" stroke-linecap="round" stroke-linejoin="round"/>
<path d="M3.68994 16.5597V15.5597C9.53151 17.5097 15.8483 17.5097 21.6899 15.5597V16.5597M3.68994 9.55965C9.53151 7.60968 15.8483 7.60968 21.6899 9.55965" stroke="#34364A" stroke-width="2" stroke-linecap="round" stroke-linejoin="round"/>
</g>
<defs>
<clipPath id="clip0_975_122">
<rect width="24" height="24" fill="white" transform="translate(0.689941 0.560059)"/>
</clipPath>
</defs>
</svg>
