<svg width="22" height="21" viewBox="0 0 22 21" fill="none" xmlns="http://www.w3.org/2000/svg">
<g clip-path="url(#clip0_975_574)">
<g clip-path="url(#clip1_975_574)">
<g clip-path="url(#clip2_975_574)">
<path d="M9.95401 1.32466C10.2832 0.311378 11.7168 0.311377 12.046 1.32466L13.7162 6.46496C13.8634 6.91811 14.2857 7.22491 14.7622 7.22491H20.167C21.2325 7.22491 21.6754 8.58826 20.8135 9.2145L16.4409 12.3914C16.0554 12.6715 15.8941 13.1679 16.0414 13.621L17.7115 18.7613C18.0408 19.7746 16.8811 20.6172 16.0191 19.991L11.6465 16.8141C11.261 16.534 10.7391 16.534 10.3535 16.8141L5.98095 19.991C5.11901 20.6172 3.95927 19.7746 4.2885 18.7613L5.95869 13.621C6.10593 13.1679 5.94463 12.6715 5.55915 12.3914L1.18655 9.2145C0.324606 8.58826 0.767584 7.22491 1.83301 7.22491H7.23784C7.71433 7.22491 8.13659 6.91811 8.28382 6.46496L9.95401 1.32466Z" fill="#F4A42B"/>
</g>
</g>
</g>
<defs>
<clipPath id="clip0_975_574">
<rect width="22" height="20.53" fill="white" transform="translate(0 0.305054)"/>
</clipPath>
<clipPath id="clip1_975_574">
<rect width="22" height="20.53" fill="white" transform="translate(0 0.305054)"/>
</clipPath>
<clipPath id="clip2_975_574">
<rect width="21.9964" height="20.53" fill="white" transform="translate(0.00180054 0.305054)"/>
</clipPath>
</defs>
</svg>
