<svg width="24" height="25" viewBox="0 0 24 25" fill="none" xmlns="http://www.w3.org/2000/svg">
<g clip-path="url(#clip0_975_131)">
<path d="M22 15.5601C22 19.4301 18.87 22.5601 15 22.5601L16.05 20.8101M2 9.56006C2 5.69006 5.13 2.56006 9 2.56006L7.95 4.31006M13.7 5.01006L17.68 7.31006L21.62 5.02006M17.68 11.3801V7.30006" stroke="#34364A" stroke-width="2" stroke-linecap="round" stroke-linejoin="round"/>
<path d="M2.34961 16.0101L6.31961 18.3101L10.2696 16.0201M6.31961 22.3801V18.3001M16.7396 2.77006L14.3396 4.10006C13.7996 4.40006 13.3496 5.16006 13.3496 5.78006V8.32006C13.3496 8.94006 13.7896 9.70006 14.3396 10.0001L16.7396 11.3301C17.2496 11.6201 18.0896 11.6201 18.6096 11.3301L21.0096 10.0001C21.5496 9.70006 21.9996 8.94006 21.9996 8.32006V5.78006C21.9996 5.16006 21.5596 4.40006 21.0096 4.10006L18.6096 2.77006C18.0996 2.49006 17.2596 2.49006 16.7396 2.77006Z" stroke="#34364A" stroke-width="2" stroke-linecap="round" stroke-linejoin="round"/>
<path d="M5.39 13.7701L2.99 15.1001C2.45 15.4001 2 16.1601 2 16.7801V19.3201C2 19.9401 2.44 20.7001 2.99 21.0001L5.39 22.3301C5.9 22.6201 6.74 22.6201 7.26 22.3301L9.66 21.0001C10.2 20.7001 10.65 19.9401 10.65 19.3201V16.7801C10.65 16.1601 10.21 15.4001 9.66 15.1001L7.26 13.7701C6.74 13.4901 5.9 13.4901 5.39 13.7701Z" stroke="#34364A" stroke-width="2" stroke-linecap="round" stroke-linejoin="round"/>
</g>
<defs>
<clipPath id="clip0_975_131">
<rect width="24" height="24" fill="white" transform="translate(0 0.560059)"/>
</clipPath>
</defs>
</svg>
