<svg width="25" height="25" viewBox="0 0 25 25" fill="none" xmlns="http://www.w3.org/2000/svg">
<g id="ic_search.svg">
<path id="Vector" fill-rule="evenodd" clip-rule="evenodd" d="M10.5 4.27515C7.18629 4.27515 4.5 6.96144 4.5 10.2751C4.5 13.5888 7.18629 16.2751 10.5 16.2751C13.8137 16.2751 16.5 13.5888 16.5 10.2751C16.5 6.96144 13.8137 4.27515 10.5 4.27515ZM2.5 10.2751C2.5 5.85687 6.08172 2.27515 10.5 2.27515C14.9183 2.27515 18.5 5.85687 18.5 10.2751C18.5 14.6934 14.9183 18.2751 10.5 18.2751C6.08172 18.2751 2.5 14.6934 2.5 10.2751Z" fill="#34364A"/>
<path id="Vector_2" fill-rule="evenodd" clip-rule="evenodd" d="M14.7929 14.568C15.1834 14.1775 15.8166 14.1775 16.2071 14.568L22.2071 20.568C22.5976 20.9585 22.5976 21.5917 22.2071 21.9822C21.8166 22.3727 21.1834 22.3727 20.7929 21.9822L14.7929 15.9822C14.4024 15.5917 14.4024 14.9585 14.7929 14.568Z" fill="#34364A"/>
</g>
</svg>
