<svg width="171" height="23" viewBox="0 0 171 23" fill="none" xmlns="http://www.w3.org/2000/svg">
<path id="Vector" d="M9.08002 9.71991C9.92002 9.91991 10.58 10.3332 11.06 10.9599C11.5533 11.5866 11.8 12.3132 11.8 13.1399C11.8 14.3666 11.3933 15.3199 10.58 15.9999C9.76672 16.6666 8.60002 16.9999 7.08002 16.9999H0.0800171V2.83991H6.92001C8.34671 2.83991 9.46002 3.15324 10.26 3.77991C11.0733 4.40658 11.48 5.31324 11.48 6.49991C11.48 7.33991 11.26 8.04661 10.82 8.61991C10.38 9.17991 9.80002 9.54661 9.08002 9.71991ZM4.02001 8.49991H6.00002C6.98672 8.49991 7.48002 8.08661 7.48002 7.25991C7.48002 6.40658 6.98002 5.97991 5.98002 5.97991H4.02001V8.49991ZM6.24001 13.8399C7.26671 13.8399 7.78001 13.4132 7.78001 12.5599C7.78001 11.6799 7.26671 11.2399 6.24001 11.2399H4.02001V13.8399H6.24001ZM24.9789 5.77991V16.9999H21.0589V15.1199C20.7389 15.7199 20.2722 16.1999 19.6589 16.5599C19.0456 16.9199 18.3256 17.0999 17.4989 17.0999C16.2056 17.0999 15.1856 16.6732 14.4389 15.8199C13.7056 14.9532 13.3389 13.7732 13.3389 12.2799V5.77991H17.2589V11.7999C17.2589 12.4399 17.4256 12.9466 17.7589 13.3199C18.1056 13.6799 18.5656 13.8599 19.1389 13.8599C19.7256 13.8599 20.1922 13.6732 20.5389 13.2999C20.8856 12.9266 21.0589 12.3999 21.0589 11.7199V5.77991H24.9789ZM26.8303 2.67991C26.8303 2.09324 27.0436 1.61324 27.4703 1.23991C27.897 0.853242 28.457 0.659912 29.1503 0.659912C29.8436 0.659912 30.397 0.853242 30.8103 1.23991C31.2236 1.61324 31.4303 2.09324 31.4303 2.67991C31.4303 3.23991 31.217 3.70658 30.7903 4.07991C30.377 4.45324 29.8303 4.63991 29.1503 4.63991C28.457 4.63991 27.897 4.45324 27.4703 4.07991C27.0436 3.70658 26.8303 3.23991 26.8303 2.67991ZM31.0903 5.77991V16.9999H27.1503V5.77991H31.0903ZM37.204 2.19991V16.9999H33.2636V2.19991H37.204ZM43.537 5.63991C44.324 5.63991 45.004 5.81324 45.577 6.15991C46.15 6.49324 46.577 6.95991 46.857 7.55991V2.19991H50.797V16.9999H46.857V15.2199C46.577 15.8199 46.15 16.2932 45.577 16.6399C45.004 16.9732 44.324 17.1399 43.537 17.1399C42.644 17.1399 41.837 16.9132 41.117 16.4599C40.397 15.9932 39.83 15.3266 39.417 14.4599C39.004 13.5799 38.797 12.5532 38.797 11.3799C38.797 10.2066 39.004 9.18661 39.417 8.31991C39.83 7.45321 40.397 6.79324 41.117 6.33991C41.837 5.87324 42.644 5.63991 43.537 5.63991ZM44.837 9.07991C44.224 9.07991 43.724 9.28661 43.337 9.69991C42.964 10.0999 42.777 10.6599 42.777 11.3799C42.777 12.1132 42.964 12.6866 43.337 13.0999C43.724 13.4999 44.224 13.6999 44.837 13.6999C45.424 13.6999 45.91 13.4932 46.297 13.0799C46.684 12.6666 46.877 12.0999 46.877 11.3799C46.877 10.6732 46.684 10.1132 46.297 9.69991C45.91 9.28661 45.424 9.07991 44.837 9.07991ZM72.771 2.83991L69.471 16.9999H64.591L62.631 8.25991L60.671 16.9999H55.791L52.491 2.83991H56.731L58.291 12.4799L60.471 2.83991H64.771L66.971 12.4799L68.531 2.83991H72.771ZM74.155 2.67991C74.155 2.09324 74.368 1.61324 74.795 1.23991C75.221 0.853242 75.781 0.659912 76.475 0.659912C77.168 0.659912 77.721 0.853242 78.135 1.23991C78.548 1.61324 78.755 2.09324 78.755 2.67991C78.755 3.23991 78.541 3.70658 78.115 4.07991C77.701 4.45324 77.155 4.63991 76.475 4.63991C75.781 4.63991 75.221 4.45324 74.795 4.07991C74.368 3.70658 74.155 3.23991 74.155 2.67991ZM78.415 5.77991V16.9999H74.475V5.77991H78.415ZM87.268 13.6399V16.9999H85.648C84.274 16.9999 83.201 16.6599 82.428 15.9799C81.654 15.2999 81.268 14.1732 81.268 12.5999V9.05991H79.828V5.77991H81.268V3.05991H85.208V5.77991H87.228V9.05991H85.208V12.6799C85.208 13.0266 85.281 13.2732 85.428 13.4199C85.588 13.5666 85.848 13.6399 86.208 13.6399H87.268ZM96.564 5.67991C97.858 5.67991 98.871 6.11324 99.604 6.97991C100.338 7.83321 100.704 8.99991 100.704 10.4799V16.9999H96.804V10.9799C96.804 10.3266 96.631 9.81991 96.284 9.45991C95.951 9.08661 95.498 8.89991 94.924 8.89991C94.338 8.89991 93.871 9.09321 93.524 9.47991C93.178 9.85321 93.004 10.3732 93.004 11.0399V16.9999H89.064V2.19991H93.004V7.65991C93.324 7.05991 93.791 6.57991 94.404 6.21991C95.018 5.85991 95.738 5.67991 96.564 5.67991ZM111.735 14.6399H106.715L105.935 16.9999H101.795L106.975 2.89991H111.515L116.675 16.9999H112.515L111.735 14.6399ZM110.755 11.6799L109.235 7.07991L107.695 11.6799H110.755ZM125.334 5.67991C126.627 5.67991 127.641 6.11324 128.374 6.97991C129.107 7.83321 129.474 8.99991 129.474 10.4799V16.9999H125.574V10.9799C125.574 10.3266 125.401 9.81991 125.054 9.45991C124.721 9.08661 124.267 8.89991 123.694 8.89991C123.107 8.89991 122.641 9.09321 122.294 9.47991C121.947 9.85321 121.774 10.3732 121.774 11.0399V16.9999H117.834V5.77991H121.774V7.65991C122.094 7.05991 122.561 6.57991 123.174 6.21991C123.787 5.85991 124.507 5.67991 125.334 5.67991ZM135.724 5.63991C136.511 5.63991 137.191 5.81324 137.764 6.15991C138.351 6.49324 138.784 6.95991 139.064 7.55991V5.77991H142.984V16.8799C142.984 17.9199 142.784 18.8599 142.384 19.6999C141.984 20.5532 141.364 21.2332 140.524 21.7399C139.684 22.2466 138.624 22.4999 137.344 22.4999C135.598 22.4999 134.204 22.0932 133.164 21.2799C132.138 20.4666 131.538 19.3532 131.364 17.9399H135.224C135.318 18.3132 135.518 18.5999 135.824 18.7999C136.131 18.9999 136.544 19.0999 137.064 19.0999C138.398 19.0999 139.064 18.3599 139.064 16.8799V15.2199C138.784 15.8199 138.351 16.2932 137.764 16.6399C137.191 16.9732 136.511 17.1399 135.724 17.1399C134.831 17.1399 134.024 16.9132 133.304 16.4599C132.584 15.9932 132.018 15.3266 131.604 14.4599C131.191 13.5799 130.984 12.5532 130.984 11.3799C130.984 10.2066 131.191 9.18661 131.604 8.31991C132.018 7.45321 132.584 6.79324 133.304 6.33991C134.024 5.87324 134.831 5.63991 135.724 5.63991ZM137.024 9.07991C136.411 9.07991 135.911 9.28661 135.524 9.69991C135.151 10.0999 134.964 10.6599 134.964 11.3799C134.964 12.1132 135.151 12.6866 135.524 13.0999C135.911 13.4999 136.411 13.6999 137.024 13.6999C137.611 13.6999 138.098 13.4932 138.484 13.0799C138.871 12.6666 139.064 12.0999 139.064 11.3799C139.064 10.6732 138.871 10.1132 138.484 9.69991C138.098 9.28661 137.611 9.07991 137.024 9.07991ZM149.299 5.63991C150.085 5.63991 150.765 5.81324 151.339 6.15991C151.925 6.49324 152.359 6.95991 152.639 7.55991V5.77991H156.559V16.8799C156.559 17.9199 156.359 18.8599 155.959 19.6999C155.559 20.5532 154.939 21.2332 154.099 21.7399C153.259 22.2466 152.199 22.4999 150.919 22.4999C149.172 22.4999 147.779 22.0932 146.739 21.2799C145.712 20.4666 145.112 19.3532 144.939 17.9399H148.799C148.892 18.3132 149.092 18.5999 149.399 18.7999C149.705 18.9999 150.119 19.0999 150.639 19.0999C151.972 19.0999 152.639 18.3599 152.639 16.8799V15.2199C152.359 15.8199 151.925 16.2932 151.339 16.6399C150.765 16.9732 150.085 17.1399 149.299 17.1399C148.405 17.1399 147.599 16.9132 146.879 16.4599C146.159 15.9932 145.592 15.3266 145.179 14.4599C144.765 13.5799 144.559 12.5532 144.559 11.3799C144.559 10.2066 144.765 9.18661 145.179 8.31991C145.592 7.45321 146.159 6.79324 146.879 6.33991C147.599 5.87324 148.405 5.63991 149.299 5.63991ZM150.599 9.07991C149.985 9.07991 149.485 9.28661 149.099 9.69991C148.725 10.0999 148.539 10.6599 148.539 11.3799C148.539 12.1132 148.725 12.6866 149.099 13.0999C149.485 13.4999 149.985 13.6999 150.599 13.6999C151.185 13.6999 151.672 13.4932 152.059 13.0799C152.445 12.6666 152.639 12.0999 152.639 11.3799C152.639 10.6732 152.445 10.1132 152.059 9.69991C151.672 9.28661 151.185 9.07991 150.599 9.07991ZM162.873 5.63991C163.659 5.63991 164.339 5.81324 164.913 6.15991C165.499 6.49324 165.933 6.95991 166.213 7.55991V5.77991H170.133V16.9999H166.213V15.2199C165.933 15.8199 165.499 16.2932 164.913 16.6399C164.339 16.9732 163.659 17.1399 162.873 17.1399C161.979 17.1399 161.173 16.9132 160.453 16.4599C159.733 15.9932 159.166 15.3266 158.753 14.4599C158.339 13.5799 158.133 12.5532 158.133 11.3799C158.133 10.2066 158.339 9.18661 158.753 8.31991C159.166 7.45321 159.733 6.79324 160.453 6.33991C161.173 5.87324 161.979 5.63991 162.873 5.63991ZM164.173 9.07991C163.559 9.07991 163.059 9.28661 162.673 9.69991C162.299 10.0999 162.113 10.6599 162.113 11.3799C162.113 12.1132 162.299 12.6866 162.673 13.0999C163.059 13.4999 163.559 13.6999 164.173 13.6999C164.759 13.6999 165.246 13.4932 165.633 13.0799C166.019 12.6666 166.213 12.0999 166.213 11.3799C166.213 10.6732 166.019 10.1132 165.633 9.69991C165.246 9.28661 164.759 9.07991 164.173 9.07991Z" fill="#34364A"/>
</svg>
