<svg width="104" height="68" viewBox="0 0 104 68" fill="none" xmlns="http://www.w3.org/2000/svg">
<g id="todays_sale.svg">
<path id="Vector" d="M96.2299 0.300543L0.945435 12L4.60151 41.7764L99.8859 30.0769L96.2299 0.300543Z" fill="white"/>
<path id="Vector_2" d="M23.518 17.1272L23.9007 20.2438L20.1092 20.7093L21.4522 31.6472L17.5614 32.1249L16.2184 21.187L12.4666 21.6477L12.0839 18.5311L23.518 17.1272ZM29.3603 16.1882C30.6836 16.0257 31.9261 16.1888 33.0877 16.6776C34.2608 17.1514 35.2259 17.8994 35.9827 18.9215C36.7528 19.9419 37.2224 21.1403 37.3914 22.5166C37.5604 23.8929 37.3947 25.1693 36.8943 26.3457C36.3939 27.5221 35.6327 28.4888 34.6107 29.2456C33.6003 29.9876 32.44 30.4391 31.1298 30.5999C29.8196 30.7608 28.578 30.6043 27.4048 30.1304C26.23 29.6433 25.2576 28.8895 24.4875 27.8691C23.7174 26.8487 23.2478 25.6503 23.0788 24.274C22.9098 22.8976 23.0755 21.6212 23.5759 20.4448C24.0763 19.2684 24.8383 18.3084 25.8619 17.5648C26.884 16.8079 28.0501 16.349 29.3603 16.1882ZM29.8039 19.801C28.8113 19.9229 28.0703 20.343 27.5809 21.0613C27.0898 21.7664 26.9125 22.6748 27.049 23.7865C27.1823 24.8717 27.5732 25.7035 28.2219 26.2821C28.8706 26.8607 29.6912 27.0891 30.6838 26.9672C31.6631 26.847 32.3974 26.4277 32.8869 25.7094C33.3763 24.991 33.5544 24.0893 33.4212 23.0041C33.2847 21.8924 32.8929 21.0539 32.2458 20.4886C31.6104 19.9083 30.7964 19.6792 29.8039 19.801ZM49.859 20.9858C50.0263 22.3489 49.8781 23.6029 49.4142 24.748C48.9486 25.8799 48.204 26.8176 47.1804 27.5612C46.1567 28.3048 44.9038 28.7677 43.4215 28.9497L37.8236 29.637L36.0979 15.5825L41.6959 14.8952C43.1781 14.7132 44.505 14.8525 45.6765 15.3132C46.8596 15.759 47.8074 16.4755 48.5196 17.4627C49.2452 18.4483 49.6916 19.6227 49.859 20.9858ZM42.6353 25.4998C43.7866 25.3584 44.6549 24.9361 45.2403 24.2328C45.8256 23.5296 46.0484 22.6089 45.9086 21.4708C45.7705 20.3459 45.3324 19.5131 44.5944 18.9724C43.8547 18.4184 42.9091 18.2121 41.7578 18.3534L40.4278 18.5167L41.3052 25.6631L42.6353 25.4998ZM58.8813 24.6737L53.8987 25.2855L53.4121 27.723L49.303 28.2275L52.726 13.6013L57.2322 13.048L64.0721 26.4141L59.9431 26.9211L58.8813 24.6737ZM57.5479 21.8552L55.4786 17.4747L54.5107 22.2281L57.5479 21.8552ZM74.1369 10.9119L70.3515 21.1093L70.8999 25.5757L67.0091 26.0535L66.4607 21.587L60.3207 12.6084L64.7872 12.0599L67.9266 17.115L69.73 11.453L74.1369 10.9119ZM75.4582 7.70703C75.865 8.5034 76.1195 9.31845 76.2219 10.1522C76.3405 11.1183 76.1792 11.9374 75.7378 12.6095C75.308 13.2668 74.5969 13.6563 73.6043 13.7782L73.4313 12.3688C74.1459 12.281 74.4455 11.7674 74.3302 10.8278L74.296 10.5498L72.9462 10.7156L72.6196 8.05558L75.4582 7.70703ZM87.8088 19.3889C87.9047 20.1697 87.7931 20.9021 87.4741 21.5861C87.1551 22.2701 86.6345 22.8445 85.9124 23.3093C85.1904 23.7741 84.2934 24.0723 83.2214 24.2039C81.5936 24.4038 80.2025 24.1783 79.0479 23.5275C77.9065 22.875 77.201 21.8333 76.9312 20.4021L81.08 19.8927C81.1799 20.3775 81.3767 20.7228 81.6707 20.9285C81.9646 21.1342 82.3035 21.2135 82.6872 21.1664C83.0313 21.1241 83.2854 21.0056 83.4496 20.8108C83.627 20.6144 83.6962 20.3574 83.6572 20.0397C83.6052 19.6163 83.3735 19.3156 82.9621 19.1377C82.549 18.9466 81.9086 18.7633 81.0407 18.5878C80.1167 18.3923 79.3456 18.1847 78.7276 17.965C78.1228 17.7438 77.5729 17.368 77.0779 16.8377C76.5962 16.3058 76.2992 15.5832 76.1871 14.6701C76.0799 13.7967 76.213 13.0213 76.5866 12.3441C76.9586 11.6536 77.5154 11.1016 78.2572 10.6881C78.9974 10.2614 79.8638 9.98712 80.8563 9.86525C82.4709 9.66701 83.8017 9.89318 84.8488 10.5437C85.9075 11.1795 86.5676 12.1798 86.8293 13.5448L82.6407 14.059C82.5342 13.6288 82.3554 13.3217 82.1044 13.1375C81.8667 12.9518 81.5692 12.8809 81.2118 12.9247C80.9075 12.9621 80.679 13.0707 80.5265 13.2507C80.3739 13.4306 80.3171 13.6794 80.3561 13.997C80.4049 14.394 80.6284 14.6823 81.0265 14.8617C81.4379 15.0396 82.0643 15.2179 82.9057 15.3967C83.8314 15.6055 84.6041 15.8263 85.2237 16.0592C85.8434 16.292 86.4007 16.6736 86.8957 17.2039C87.3907 17.7342 87.6951 18.4626 87.8088 19.3889Z" fill="#FD467D"/>
<path id="Vector_3" d="M82.5252 28.1785L20.9873 35.7344L24.6434 65.5108L86.1812 57.9549L82.5252 28.1785Z" fill="#FD467D"/>
<path id="Vector_4" d="M44.905 50.8523C45.0009 51.6331 44.8893 52.3655 44.5703 53.0494C44.2513 53.7334 43.7307 54.3078 43.0087 54.7726C42.2866 55.2374 41.3896 55.5356 40.3176 55.6672C38.6899 55.8671 37.2987 55.6416 36.1441 54.9908C35.0027 54.3384 34.2972 53.2966 34.0274 51.8655L38.1763 51.3561C38.2761 51.8408 38.473 52.1861 38.7669 52.3918C39.0608 52.5975 39.3997 52.6768 39.7835 52.6297C40.1276 52.5874 40.3817 52.4689 40.5458 52.2741C40.7232 52.0777 40.7924 51.8207 40.7534 51.5031C40.7014 51.0796 40.4697 50.7789 40.0583 50.6011C39.6453 50.41 39.0048 50.2267 38.1369 50.0511C37.2129 49.8556 36.4419 49.648 35.8238 49.4284C35.219 49.2071 34.6691 48.8313 34.1741 48.301C33.6924 47.7691 33.3954 47.0466 33.2833 46.1334C33.1761 45.26 33.3092 44.4846 33.6828 43.8074C34.0548 43.1169 34.6117 42.5649 35.3535 42.1515C36.0937 41.7247 36.96 41.4504 37.9526 41.3286C39.5671 41.1303 40.8979 41.3565 41.945 42.0071C43.0037 42.6428 43.6639 43.6431 43.9255 45.0081L39.737 45.5224C39.6304 45.0921 39.4516 44.785 39.2007 44.6009C38.9629 44.4151 38.6654 44.3442 38.3081 44.3881C38.0037 44.4254 37.7752 44.5341 37.6227 44.714C37.4701 44.8939 37.4134 45.1427 37.4524 45.4603C37.5011 45.8573 37.7246 46.1456 38.1228 46.3251C38.5342 46.5029 39.1606 46.6813 40.002 46.86C40.9276 47.0688 41.7003 47.2896 42.32 47.5225C42.9396 47.7554 43.497 48.137 43.9919 48.6673C44.4869 49.1976 44.7913 49.9259 44.905 50.8523ZM53.5167 51.5278L48.5341 52.1396L48.0475 54.5771L43.9384 55.0816L47.3614 40.4554L51.8676 39.9021L58.7075 53.2682L54.5785 53.7752L53.5167 51.5278ZM52.1833 48.7093L50.114 44.3288L49.1461 49.0822L52.1833 48.7093ZM61.2218 49.9571L65.6088 49.4184L65.972 52.3762L57.6743 53.395L55.9486 39.3406L59.8593 38.8604L61.2218 49.9571ZM67.8287 41.0455L68.1139 43.368L72.6598 42.8099L73.0229 45.7677L68.4771 46.3258L68.7891 48.8667L73.9304 48.2355L74.3131 51.3521L65.2611 52.4635L63.5354 38.409L72.5874 37.2976L72.9701 40.4142L67.8287 41.0455Z" fill="white"/>
</g>
</svg>
