<svg width="50" height="51" viewBox="0 0 50 51" fill="none" xmlns="http://www.w3.org/2000/svg">
<g id="logo_bwa_new.svg" clip-path="url(#clip0_975_1097)">
<g id="Logo">
<g id="BWALogo-Copy-2">
<g id="Group-2">
<path id="Oval" d="M25 50.5298C38.8071 50.5298 50 39.3369 50 25.5298C50 11.7227 38.8071 0.529785 25 0.529785C11.1929 0.529785 0 11.7227 0 25.5298C0 39.3369 11.1929 50.5298 25 50.5298Z" fill="#335EF7"/>
<g id="Group">
<path id="Path-Copy" d="M22.9575 29.0771C24.4951 29.9836 25.7153 29.9836 26.6181 29.0771C28.3927 27.2953 29.957 24.1688 31.311 19.6976C31.916 18.4883 33.3875 17.9981 34.5976 18.6028C35.0717 18.8396 35.4561 19.2238 35.6931 19.6976L42.3077 32.9186" stroke="white" stroke-width="4.65587" stroke-dasharray="1.21 1.21"/>
<path id="Path" d="M7.69232 32.9186L14.3069 19.6976C14.912 18.4883 16.3834 17.9981 17.5935 18.6028C18.0676 18.8396 18.452 19.2238 18.6891 19.6976C21.0644 24.7393 22.741 28.2382 23.7188 30.1943C24.204 31.165 25.2934 30.6855 26.987 28.7557" stroke="white" stroke-width="4.65587"/>
</g>
</g>
</g>
</g>
</g>
<defs>
<clipPath id="clip0_975_1097">
<rect width="50" height="50" fill="white" transform="translate(0 0.529785)"/>
</clipPath>
</defs>
</svg>
